<svg id="Layer_1" data-name="Layer 1" xmlns="http://www.w3.org/2000/svg" viewBox="0 0 388.99 500"><title>500px_mark_dark</title><path d="M68,328.53c0.11,0.3,2.7,7.47,4.2,11A163.75,163.75,0,1,0,223,112.16,167.16,167.16,0,0,0,158.41,125c-15.91,6.73-42.84,24.06-58.6,40.31l-0.09.1V30.74H326c8.23-.09,8.23-11.59,8.23-15.37S334.21,0.1,326,0H81.31A10.75,10.75,0,0,0,70.53,10.67V200.26c0,6.12,7.62,10.53,14.7,12,13.82,3,17-1.47,20.4-6.14l0.45-.62c5.17-7.68,21.32-23.94,21.48-24.1A133.82,133.82,0,1,1,317.31,370.19c-24.84,24.84-59.55,39.09-95.22,39.09a129.37,129.37,0,0,1-67.46-18.62l0.09-115.28c0-15.37,6.67-32.08,17.84-44.7a65.4,65.4,0,0,1,49.57-22.37A68.92,68.92,0,0,1,271,228.19a66.72,66.72,0,0,1,19.91,47.73c0,38.52-30.29,68.7-69,68.7-7.45,0-21-3.29-21.56-3.43-7.81-2.33-11.13,8.51-12.22,12.09-4.2,13.74,2.11,16.47,3.42,16.87a93.94,93.94,0,0,0,31.31,4.59,99.14,99.14,0,0,0,99-99.05c0-54.18-44.39-98.26-98.94-98.26a100.13,100.13,0,0,0-70.67,28.76c-18,17.66-28.26,41.21-28.26,64.6v0.58c-0.09,2.92-.14,72-0.16,94.7l-0.1-.11c-10.26-11.36-20.4-28.75-27.13-46.52-2.64-7-8.59-5.73-16.71-3.23-3.55,1.09-14.35,4.42-12,12.23Zm116.29-27.08c0,3.31,3.07,6.22,4.88,8l0.57,0.55c3.11,3.06,6.06,4.6,8.79,4.6a6.06,6.06,0,0,0,4.14-1.53c1.37-1.27,16.85-17,18.32-18.45l17.26,17.2a7.24,7.24,0,0,0,5.36,2.76c2.76,0,5.76-1.64,8.93-4.87,7.45-7.6,3.72-11.71,1.92-13.69L237,278.49l18.24-18.37c4-4.33.47-8.93-3.05-12.45-5.12-5.12-10.05-6.44-13.21-3.52l-18.13,18.17L202.47,244a5,5,0,0,0-3.54-1.42c-2.44,0-5.34,1.65-8.59,4.91-5.64,5.64-6.85,9.54-3.91,12.65l18.34,18.29-18.24,18.27A6.65,6.65,0,0,0,184.29,301.45Zm40-247.87c-29.32,0-60.5,5.92-83.41,15.83a6.54,6.54,0,0,0-4.23,5.69c-0.3,2.61.4,6,2.15,10.52,1.42,3.63,5.19,13.28,12.5,10.49,23.45-8.94,49.37-13.87,73-13.87A197,197,0,0,1,301.41,97.8c19.41,8.21,37.73,20.07,57.64,37.33a7,7,0,0,0,4.58,1.9c3.88,0,7.61-3.81,10.79-7.39,5.32-6,9-10.92,3.73-15.88-19-18-39.85-31.47-65.58-42.35A225.44,225.44,0,0,0,224.26,53.57Zm158,362h0c-3.53-3.52-6.52-5.6-9.16-6.35a6.65,6.65,0,0,0-6.9,1.65l-1.74,1.73a197.65,197.65,0,0,1-279.78,0c-18.93-18.93-33.2-40.09-42.4-62.88A214.68,214.68,0,0,1,29.39,305.3c-0.09-.51-0.16-0.92-0.22-1.22-1.23-6.47-7.19-6.92-15.75-5.61C9.87,299-1,300.68.07,308.47l0,0.18A227.2,227.2,0,0,0,385.24,433.42s1.19-1.18,1.81-1.86C389.35,429.06,391.35,424.68,382.23,415.59Z" transform="translate(0)"/></svg>